<mxfile host="Electron" modified="2024-05-02T17:19:09.067Z" agent="Mozilla/5.0 (Windows NT 10.0; Win64; x64) AppleWebKit/537.36 (KHTML, like Gecko) draw.io/24.2.5 Chrome/120.0.6099.109 Electron/28.1.0 Safari/537.36" etag="bhX6yXjcdItLUuknNFNz" version="24.2.5" type="device" pages="2">
  <diagram name="Page-1" id="n6Wm4xatbLt7hEbNFKrT">
    <mxGraphModel dx="1434" dy="836" grid="1" gridSize="10" guides="1" tooltips="1" connect="1" arrows="1" fold="1" page="1" pageScale="1" pageWidth="827" pageHeight="1169" math="0" shadow="0">
      <root>
        <mxCell id="0" />
        <mxCell id="1" parent="0" />
        <mxCell id="xvzqIOrwYc5JqCSCZPVQ-65" value="" style="edgeStyle=orthogonalEdgeStyle;rounded=0;orthogonalLoop=1;jettySize=auto;html=1;flowAnimation=1;" parent="1" source="xvzqIOrwYc5JqCSCZPVQ-2" target="xvzqIOrwYc5JqCSCZPVQ-64" edge="1">
          <mxGeometry relative="1" as="geometry" />
        </mxCell>
        <mxCell id="xvzqIOrwYc5JqCSCZPVQ-2" value="Start" style="strokeWidth=1;html=1;shape=mxgraph.flowchart.start_1;whiteSpace=wrap;" parent="1" vertex="1">
          <mxGeometry x="364" y="10" width="100" height="60" as="geometry" />
        </mxCell>
        <mxCell id="zvjnZ3DbJptS5yVOCIOM-18" style="edgeStyle=orthogonalEdgeStyle;rounded=0;orthogonalLoop=1;jettySize=auto;html=1;entryX=0.5;entryY=0;entryDx=0;entryDy=0;flowAnimation=1;" edge="1" parent="1" source="xvzqIOrwYc5JqCSCZPVQ-17" target="xvzqIOrwYc5JqCSCZPVQ-34">
          <mxGeometry relative="1" as="geometry" />
        </mxCell>
        <mxCell id="xvzqIOrwYc5JqCSCZPVQ-17" value="Make Pizza" style="rounded=0;whiteSpace=wrap;html=1;" parent="1" vertex="1">
          <mxGeometry x="80" y="200" width="120" height="60" as="geometry" />
        </mxCell>
        <mxCell id="zvjnZ3DbJptS5yVOCIOM-6" value="" style="edgeStyle=orthogonalEdgeStyle;rounded=0;orthogonalLoop=1;jettySize=auto;html=1;flowAnimation=1;" edge="1" parent="1" source="xvzqIOrwYc5JqCSCZPVQ-18" target="zvjnZ3DbJptS5yVOCIOM-5">
          <mxGeometry relative="1" as="geometry" />
        </mxCell>
        <mxCell id="xvzqIOrwYc5JqCSCZPVQ-18" value="Choose Drinks" style="rounded=0;whiteSpace=wrap;html=1;" parent="1" vertex="1">
          <mxGeometry x="210" y="200" width="120" height="60" as="geometry" />
        </mxCell>
        <mxCell id="_eYrzRbU0s9j7Dw9RQp9-10" style="edgeStyle=orthogonalEdgeStyle;rounded=0;orthogonalLoop=1;jettySize=auto;html=1;flowAnimation=1;" edge="1" parent="1" source="xvzqIOrwYc5JqCSCZPVQ-20" target="_eYrzRbU0s9j7Dw9RQp9-9">
          <mxGeometry relative="1" as="geometry">
            <Array as="points">
              <mxPoint x="610" y="290" />
              <mxPoint x="767" y="290" />
            </Array>
          </mxGeometry>
        </mxCell>
        <mxCell id="xvzqIOrwYc5JqCSCZPVQ-20" value="Choose Side" style="rounded=0;whiteSpace=wrap;html=1;" parent="1" vertex="1">
          <mxGeometry x="550" y="200" width="120" height="60" as="geometry" />
        </mxCell>
        <mxCell id="_eYrzRbU0s9j7Dw9RQp9-30" style="edgeStyle=orthogonalEdgeStyle;rounded=0;orthogonalLoop=1;jettySize=auto;html=1;flowAnimation=1;" edge="1" parent="1" source="xvzqIOrwYc5JqCSCZPVQ-21" target="_eYrzRbU0s9j7Dw9RQp9-28">
          <mxGeometry relative="1" as="geometry">
            <Array as="points">
              <mxPoint x="810" y="910" />
              <mxPoint x="767" y="910" />
            </Array>
          </mxGeometry>
        </mxCell>
        <mxCell id="xvzqIOrwYc5JqCSCZPVQ-21" value="Order" style="rounded=0;whiteSpace=wrap;html=1;" parent="1" vertex="1">
          <mxGeometry x="707" y="200" width="120" height="60" as="geometry" />
        </mxCell>
        <mxCell id="xvzqIOrwYc5JqCSCZPVQ-73" style="edgeStyle=orthogonalEdgeStyle;rounded=0;orthogonalLoop=1;jettySize=auto;html=1;flowAnimation=1;" parent="1" source="xvzqIOrwYc5JqCSCZPVQ-34" target="xvzqIOrwYc5JqCSCZPVQ-38" edge="1">
          <mxGeometry relative="1" as="geometry">
            <Array as="points">
              <mxPoint x="354" y="410" />
            </Array>
          </mxGeometry>
        </mxCell>
        <mxCell id="xvzqIOrwYc5JqCSCZPVQ-74" style="edgeStyle=orthogonalEdgeStyle;rounded=0;orthogonalLoop=1;jettySize=auto;html=1;flowAnimation=1;" parent="1" source="xvzqIOrwYc5JqCSCZPVQ-34" target="xvzqIOrwYc5JqCSCZPVQ-36" edge="1">
          <mxGeometry relative="1" as="geometry">
            <Array as="points">
              <mxPoint x="224" y="450" />
              <mxPoint x="224" y="450" />
            </Array>
          </mxGeometry>
        </mxCell>
        <mxCell id="xvzqIOrwYc5JqCSCZPVQ-34" value="Which Size?" style="rhombus;whiteSpace=wrap;html=1;rounded=0;" parent="1" vertex="1">
          <mxGeometry x="184" y="330" width="80" height="80" as="geometry" />
        </mxCell>
        <mxCell id="xvzqIOrwYc5JqCSCZPVQ-54" value="" style="edgeStyle=orthogonalEdgeStyle;rounded=0;orthogonalLoop=1;jettySize=auto;html=1;flowAnimation=1;" parent="1" source="xvzqIOrwYc5JqCSCZPVQ-36" target="xvzqIOrwYc5JqCSCZPVQ-53" edge="1">
          <mxGeometry relative="1" as="geometry">
            <Array as="points">
              <mxPoint x="214" y="520" />
              <mxPoint x="214" y="520" />
            </Array>
          </mxGeometry>
        </mxCell>
        <mxCell id="xvzqIOrwYc5JqCSCZPVQ-36" value="size 2" style="whiteSpace=wrap;html=1;rounded=0;" parent="1" vertex="1">
          <mxGeometry x="174" y="440" width="120" height="60" as="geometry" />
        </mxCell>
        <mxCell id="xvzqIOrwYc5JqCSCZPVQ-55" style="edgeStyle=orthogonalEdgeStyle;rounded=0;orthogonalLoop=1;jettySize=auto;html=1;flowAnimation=1;" parent="1" source="xvzqIOrwYc5JqCSCZPVQ-38" target="xvzqIOrwYc5JqCSCZPVQ-53" edge="1">
          <mxGeometry relative="1" as="geometry">
            <Array as="points">
              <mxPoint x="344" y="550" />
              <mxPoint x="214" y="550" />
            </Array>
          </mxGeometry>
        </mxCell>
        <mxCell id="xvzqIOrwYc5JqCSCZPVQ-38" value="size 3" style="whiteSpace=wrap;html=1;rounded=0;" parent="1" vertex="1">
          <mxGeometry x="294" y="440" width="120" height="60" as="geometry" />
        </mxCell>
        <mxCell id="xvzqIOrwYc5JqCSCZPVQ-56" style="edgeStyle=orthogonalEdgeStyle;rounded=0;orthogonalLoop=1;jettySize=auto;html=1;flowAnimation=1;" parent="1" source="xvzqIOrwYc5JqCSCZPVQ-40" target="xvzqIOrwYc5JqCSCZPVQ-53" edge="1">
          <mxGeometry relative="1" as="geometry">
            <Array as="points">
              <mxPoint x="114" y="550" />
              <mxPoint x="214" y="550" />
            </Array>
          </mxGeometry>
        </mxCell>
        <mxCell id="xvzqIOrwYc5JqCSCZPVQ-40" value="size 1" style="whiteSpace=wrap;html=1;rounded=0;" parent="1" vertex="1">
          <mxGeometry x="54" y="440" width="120" height="60" as="geometry" />
        </mxCell>
        <mxCell id="xvzqIOrwYc5JqCSCZPVQ-58" value="" style="edgeStyle=orthogonalEdgeStyle;rounded=0;orthogonalLoop=1;jettySize=auto;html=1;flowAnimation=1;" parent="1" source="xvzqIOrwYc5JqCSCZPVQ-53" target="xvzqIOrwYc5JqCSCZPVQ-57" edge="1">
          <mxGeometry relative="1" as="geometry" />
        </mxCell>
        <mxCell id="xvzqIOrwYc5JqCSCZPVQ-53" value="ask which topping(s) they want" style="rounded=0;whiteSpace=wrap;html=1;" parent="1" vertex="1">
          <mxGeometry x="154" y="570" width="120" height="60" as="geometry" />
        </mxCell>
        <mxCell id="xvzqIOrwYc5JqCSCZPVQ-60" value="" style="edgeStyle=orthogonalEdgeStyle;rounded=0;orthogonalLoop=1;jettySize=auto;html=1;flowAnimation=1;" parent="1" source="xvzqIOrwYc5JqCSCZPVQ-57" target="xvzqIOrwYc5JqCSCZPVQ-59" edge="1">
          <mxGeometry relative="1" as="geometry">
            <Array as="points">
              <mxPoint x="250" y="770" />
              <mxPoint x="250" y="770" />
            </Array>
          </mxGeometry>
        </mxCell>
        <mxCell id="xvzqIOrwYc5JqCSCZPVQ-57" value="make list of all components" style="whiteSpace=wrap;html=1;rounded=0;" parent="1" vertex="1">
          <mxGeometry x="154" y="680" width="120" height="60" as="geometry" />
        </mxCell>
        <mxCell id="zvjnZ3DbJptS5yVOCIOM-3" style="edgeStyle=orthogonalEdgeStyle;rounded=0;orthogonalLoop=1;jettySize=auto;html=1;flowAnimation=1;" edge="1" parent="1" source="xvzqIOrwYc5JqCSCZPVQ-59">
          <mxGeometry relative="1" as="geometry">
            <mxPoint x="114" y="830" as="targetPoint" />
          </mxGeometry>
        </mxCell>
        <mxCell id="xvzqIOrwYc5JqCSCZPVQ-59" value="ask for quantity, incase they want multiple ones" style="whiteSpace=wrap;html=1;rounded=0;" parent="1" vertex="1">
          <mxGeometry x="190" y="840" width="120" height="60" as="geometry" />
        </mxCell>
        <mxCell id="xvzqIOrwYc5JqCSCZPVQ-66" style="edgeStyle=orthogonalEdgeStyle;rounded=0;orthogonalLoop=1;jettySize=auto;html=1;entryX=0.5;entryY=0;entryDx=0;entryDy=0;flowAnimation=1;" parent="1" source="xvzqIOrwYc5JqCSCZPVQ-64" target="xvzqIOrwYc5JqCSCZPVQ-20" edge="1">
          <mxGeometry relative="1" as="geometry">
            <Array as="points">
              <mxPoint x="414" y="180" />
              <mxPoint x="610" y="180" />
            </Array>
          </mxGeometry>
        </mxCell>
        <mxCell id="xvzqIOrwYc5JqCSCZPVQ-67" style="edgeStyle=orthogonalEdgeStyle;rounded=0;orthogonalLoop=1;jettySize=auto;html=1;flowAnimation=1;" parent="1" source="xvzqIOrwYc5JqCSCZPVQ-64" target="xvzqIOrwYc5JqCSCZPVQ-21" edge="1">
          <mxGeometry relative="1" as="geometry">
            <Array as="points">
              <mxPoint x="414" y="180" />
              <mxPoint x="767" y="180" />
            </Array>
          </mxGeometry>
        </mxCell>
        <mxCell id="xvzqIOrwYc5JqCSCZPVQ-69" style="edgeStyle=orthogonalEdgeStyle;rounded=0;orthogonalLoop=1;jettySize=auto;html=1;flowAnimation=1;" parent="1" source="xvzqIOrwYc5JqCSCZPVQ-64" target="xvzqIOrwYc5JqCSCZPVQ-18" edge="1">
          <mxGeometry relative="1" as="geometry">
            <Array as="points">
              <mxPoint x="414" y="180" />
              <mxPoint x="270" y="180" />
            </Array>
          </mxGeometry>
        </mxCell>
        <mxCell id="xvzqIOrwYc5JqCSCZPVQ-70" style="edgeStyle=orthogonalEdgeStyle;rounded=0;orthogonalLoop=1;jettySize=auto;html=1;flowAnimation=1;" parent="1" source="xvzqIOrwYc5JqCSCZPVQ-64" target="xvzqIOrwYc5JqCSCZPVQ-17" edge="1">
          <mxGeometry relative="1" as="geometry">
            <Array as="points">
              <mxPoint x="414" y="180" />
              <mxPoint x="80" y="180" />
            </Array>
          </mxGeometry>
        </mxCell>
        <mxCell id="xvzqIOrwYc5JqCSCZPVQ-64" value="go to choices" style="rounded=0;whiteSpace=wrap;html=1;" parent="1" vertex="1">
          <mxGeometry x="354" y="110" width="120" height="60" as="geometry" />
        </mxCell>
        <mxCell id="xvzqIOrwYc5JqCSCZPVQ-72" style="edgeStyle=orthogonalEdgeStyle;rounded=0;orthogonalLoop=1;jettySize=auto;html=1;entryX=0.383;entryY=-0.05;entryDx=0;entryDy=0;entryPerimeter=0;flowAnimation=1;" parent="1" source="xvzqIOrwYc5JqCSCZPVQ-34" target="xvzqIOrwYc5JqCSCZPVQ-40" edge="1">
          <mxGeometry relative="1" as="geometry">
            <Array as="points">
              <mxPoint x="100" y="410" />
            </Array>
          </mxGeometry>
        </mxCell>
        <mxCell id="zvjnZ3DbJptS5yVOCIOM-1" value="add that many pizzas to the checkout list&#39;s &quot;pizza&quot; section (sub-list of the checkout list),&amp;nbsp;with toppings as a sub-list (so, in total, a sub-sub list)" style="whiteSpace=wrap;html=1;rounded=0;" vertex="1" parent="1">
          <mxGeometry x="50" y="750" width="134" height="100" as="geometry" />
        </mxCell>
        <mxCell id="zvjnZ3DbJptS5yVOCIOM-8" value="drink &quot;x&quot;" style="edgeStyle=orthogonalEdgeStyle;rounded=0;orthogonalLoop=1;jettySize=auto;html=1;flowAnimation=1;" edge="1" parent="1" source="zvjnZ3DbJptS5yVOCIOM-5" target="zvjnZ3DbJptS5yVOCIOM-7">
          <mxGeometry relative="1" as="geometry" />
        </mxCell>
        <mxCell id="zvjnZ3DbJptS5yVOCIOM-5" value="which drink?" style="rhombus;whiteSpace=wrap;html=1;rounded=0;" vertex="1" parent="1">
          <mxGeometry x="380" y="270" width="80" height="80" as="geometry" />
        </mxCell>
        <mxCell id="zvjnZ3DbJptS5yVOCIOM-25" value="" style="edgeStyle=orthogonalEdgeStyle;rounded=0;orthogonalLoop=1;jettySize=auto;html=1;flowAnimation=1;" edge="1" parent="1" source="zvjnZ3DbJptS5yVOCIOM-7" target="zvjnZ3DbJptS5yVOCIOM-24">
          <mxGeometry relative="1" as="geometry" />
        </mxCell>
        <mxCell id="zvjnZ3DbJptS5yVOCIOM-7" value="add drink &quot;x&quot; to list" style="whiteSpace=wrap;html=1;rounded=0;" vertex="1" parent="1">
          <mxGeometry x="420" y="440" width="120" height="60" as="geometry" />
        </mxCell>
        <mxCell id="zvjnZ3DbJptS5yVOCIOM-11" value="" style="edgeStyle=orthogonalEdgeStyle;rounded=0;orthogonalLoop=1;jettySize=auto;html=1;strokeColor=none;" edge="1" parent="1" source="zvjnZ3DbJptS5yVOCIOM-9" target="zvjnZ3DbJptS5yVOCIOM-7">
          <mxGeometry relative="1" as="geometry" />
        </mxCell>
        <mxCell id="zvjnZ3DbJptS5yVOCIOM-12" value="" style="edgeStyle=orthogonalEdgeStyle;rounded=0;orthogonalLoop=1;jettySize=auto;html=1;strokeColor=default;flowAnimation=0;endArrow=none;endFill=0;" edge="1" parent="1" source="zvjnZ3DbJptS5yVOCIOM-9" target="zvjnZ3DbJptS5yVOCIOM-7">
          <mxGeometry relative="1" as="geometry" />
        </mxCell>
        <mxCell id="zvjnZ3DbJptS5yVOCIOM-9" value="multiple drinks, multiple boxes? use list instead of multiple boxes for drinks?" style="shape=note;whiteSpace=wrap;html=1;backgroundOutline=1;fontColor=#000000;darkOpacity=0.05;fillColor=#FFF9B2;strokeColor=none;fillStyle=solid;direction=west;gradientDirection=north;gradientColor=#FFF2A1;shadow=1;size=20;pointerEvents=1;" vertex="1" parent="1">
          <mxGeometry x="560" y="440" width="140" height="70" as="geometry" />
        </mxCell>
        <mxCell id="zvjnZ3DbJptS5yVOCIOM-23" style="edgeStyle=orthogonalEdgeStyle;rounded=0;orthogonalLoop=1;jettySize=auto;html=1;entryX=0.008;entryY=0.867;entryDx=0;entryDy=0;entryPerimeter=0;flowAnimation=1;" edge="1" parent="1" source="zvjnZ3DbJptS5yVOCIOM-1" target="xvzqIOrwYc5JqCSCZPVQ-64">
          <mxGeometry relative="1" as="geometry">
            <Array as="points">
              <mxPoint x="50" y="790" />
              <mxPoint x="50" y="162" />
            </Array>
          </mxGeometry>
        </mxCell>
        <mxCell id="zvjnZ3DbJptS5yVOCIOM-28" value="yes" style="edgeStyle=orthogonalEdgeStyle;rounded=0;orthogonalLoop=1;jettySize=auto;html=1;entryX=1;entryY=0.5;entryDx=0;entryDy=0;flowAnimation=1;" edge="1" parent="1" source="zvjnZ3DbJptS5yVOCIOM-24" target="zvjnZ3DbJptS5yVOCIOM-5">
          <mxGeometry relative="1" as="geometry">
            <Array as="points">
              <mxPoint x="500" y="560" />
              <mxPoint x="740" y="560" />
              <mxPoint x="740" y="310" />
            </Array>
          </mxGeometry>
        </mxCell>
        <mxCell id="QlYteqA6bhvjw4dMiyQZ-2" style="edgeStyle=orthogonalEdgeStyle;rounded=0;orthogonalLoop=1;jettySize=auto;html=1;entryX=0;entryY=0.75;entryDx=0;entryDy=0;flowAnimation=1;" edge="1" parent="1" source="zvjnZ3DbJptS5yVOCIOM-24" target="xvzqIOrwYc5JqCSCZPVQ-64">
          <mxGeometry relative="1" as="geometry">
            <Array as="points">
              <mxPoint x="480" y="910" />
              <mxPoint x="40" y="910" />
              <mxPoint x="40" y="155" />
            </Array>
          </mxGeometry>
        </mxCell>
        <mxCell id="zvjnZ3DbJptS5yVOCIOM-24" value="any more?" style="rhombus;whiteSpace=wrap;html=1;rounded=0;" vertex="1" parent="1">
          <mxGeometry x="440" y="570" width="80" height="80" as="geometry" />
        </mxCell>
        <mxCell id="zvjnZ3DbJptS5yVOCIOM-27" style="edgeStyle=orthogonalEdgeStyle;rounded=0;orthogonalLoop=1;jettySize=auto;html=1;endArrow=none;endFill=0;" edge="1" parent="1" source="zvjnZ3DbJptS5yVOCIOM-26" target="zvjnZ3DbJptS5yVOCIOM-24">
          <mxGeometry relative="1" as="geometry" />
        </mxCell>
        <mxCell id="zvjnZ3DbJptS5yVOCIOM-26" value="could work instead by just having some sort of confirm button, and they can add any number, then hit confirm. or after each drink (and size if applicable)" style="shape=note;whiteSpace=wrap;html=1;backgroundOutline=1;fontColor=#000000;darkOpacity=0.05;fillColor=#FFF9B2;strokeColor=none;fillStyle=solid;direction=west;gradientDirection=north;gradientColor=#FFF2A1;shadow=1;size=20;pointerEvents=1;" vertex="1" parent="1">
          <mxGeometry x="580" y="560" width="140" height="120" as="geometry" />
        </mxCell>
        <mxCell id="_eYrzRbU0s9j7Dw9RQp9-4" style="edgeStyle=orthogonalEdgeStyle;rounded=0;orthogonalLoop=1;jettySize=auto;html=1;entryX=1;entryY=0.25;entryDx=0;entryDy=0;" edge="1" parent="1" source="_eYrzRbU0s9j7Dw9RQp9-3" target="zvjnZ3DbJptS5yVOCIOM-7">
          <mxGeometry relative="1" as="geometry">
            <Array as="points">
              <mxPoint x="550" y="455" />
            </Array>
          </mxGeometry>
        </mxCell>
        <mxCell id="_eYrzRbU0s9j7Dw9RQp9-3" value="multiple drink sizes?" style="shape=note;whiteSpace=wrap;html=1;backgroundOutline=1;fontColor=#000000;darkOpacity=0.05;fillColor=#FFF9B2;strokeColor=none;fillStyle=solid;direction=west;gradientDirection=north;gradientColor=#FFF2A1;shadow=1;size=20;pointerEvents=1;" vertex="1" parent="1">
          <mxGeometry x="490" y="320" width="140" height="50" as="geometry" />
        </mxCell>
        <mxCell id="_eYrzRbU0s9j7Dw9RQp9-20" value="side (x)" style="edgeStyle=orthogonalEdgeStyle;rounded=0;orthogonalLoop=1;jettySize=auto;html=1;entryX=1;entryY=0.75;entryDx=0;entryDy=0;endArrow=classic;endFill=1;flowAnimation=1;" edge="1" parent="1" source="_eYrzRbU0s9j7Dw9RQp9-9" target="_eYrzRbU0s9j7Dw9RQp9-11">
          <mxGeometry relative="1" as="geometry">
            <Array as="points">
              <mxPoint x="740" y="690" />
              <mxPoint x="669" y="690" />
              <mxPoint x="669" y="725" />
            </Array>
          </mxGeometry>
        </mxCell>
        <mxCell id="_eYrzRbU0s9j7Dw9RQp9-9" value="which side?" style="rhombus;whiteSpace=wrap;html=1;rounded=0;" vertex="1" parent="1">
          <mxGeometry x="727" y="580" width="80" height="80" as="geometry" />
        </mxCell>
        <mxCell id="_eYrzRbU0s9j7Dw9RQp9-13" value="" style="edgeStyle=orthogonalEdgeStyle;rounded=0;orthogonalLoop=1;jettySize=auto;html=1;flowAnimation=1;" edge="1" parent="1" source="_eYrzRbU0s9j7Dw9RQp9-11" target="_eYrzRbU0s9j7Dw9RQp9-12">
          <mxGeometry relative="1" as="geometry" />
        </mxCell>
        <mxCell id="_eYrzRbU0s9j7Dw9RQp9-11" value="add side &quot;x&quot; to list (sublist of cart)" style="whiteSpace=wrap;html=1;rounded=0;" vertex="1" parent="1">
          <mxGeometry x="490" y="680" width="120" height="60" as="geometry" />
        </mxCell>
        <mxCell id="_eYrzRbU0s9j7Dw9RQp9-24" value="yes" style="edgeStyle=orthogonalEdgeStyle;rounded=0;orthogonalLoop=1;jettySize=auto;html=1;flowAnimation=1;" edge="1" parent="1" source="_eYrzRbU0s9j7Dw9RQp9-12" target="_eYrzRbU0s9j7Dw9RQp9-9">
          <mxGeometry x="-0.9235" relative="1" as="geometry">
            <Array as="points">
              <mxPoint x="590" y="900" />
              <mxPoint x="800" y="900" />
            </Array>
            <mxPoint as="offset" />
          </mxGeometry>
        </mxCell>
        <mxCell id="_eYrzRbU0s9j7Dw9RQp9-36" value="no" style="edgeStyle=orthogonalEdgeStyle;rounded=0;orthogonalLoop=1;jettySize=auto;html=1;entryX=0;entryY=0.5;entryDx=0;entryDy=0;flowAnimation=1;" edge="1" parent="1" source="_eYrzRbU0s9j7Dw9RQp9-12" target="xvzqIOrwYc5JqCSCZPVQ-64">
          <mxGeometry x="-0.9764" relative="1" as="geometry">
            <Array as="points">
              <mxPoint x="490" y="780" />
              <mxPoint x="490" y="920" />
              <mxPoint x="30" y="920" />
              <mxPoint x="30" y="140" />
            </Array>
            <mxPoint as="offset" />
          </mxGeometry>
        </mxCell>
        <mxCell id="_eYrzRbU0s9j7Dw9RQp9-12" value="any more?" style="rhombus;whiteSpace=wrap;html=1;rounded=0;" vertex="1" parent="1">
          <mxGeometry x="510" y="770" width="80" height="80" as="geometry" />
        </mxCell>
        <mxCell id="_eYrzRbU0s9j7Dw9RQp9-23" style="edgeStyle=orthogonalEdgeStyle;rounded=0;orthogonalLoop=1;jettySize=auto;html=1;endArrow=none;endFill=0;flowAnimation=0;" edge="1" parent="1" source="_eYrzRbU0s9j7Dw9RQp9-15" target="_eYrzRbU0s9j7Dw9RQp9-9">
          <mxGeometry relative="1" as="geometry">
            <Array as="points">
              <mxPoint x="780" y="730" />
              <mxPoint x="767" y="730" />
            </Array>
          </mxGeometry>
        </mxCell>
        <mxCell id="_eYrzRbU0s9j7Dw9RQp9-15" value="use 1 box&amp;nbsp; per side? choice of some sort? combo?" style="shape=note;whiteSpace=wrap;html=1;backgroundOutline=1;fontColor=#000000;darkOpacity=0.05;fillColor=#FFF9B2;strokeColor=none;fillStyle=solid;direction=west;gradientDirection=north;gradientColor=#FFF2A1;shadow=1;size=20;pointerEvents=1;" vertex="1" parent="1">
          <mxGeometry x="640" y="800" width="140" height="70" as="geometry" />
        </mxCell>
        <mxCell id="_eYrzRbU0s9j7Dw9RQp9-22" style="edgeStyle=orthogonalEdgeStyle;rounded=0;orthogonalLoop=1;jettySize=auto;html=1;entryX=1;entryY=1;entryDx=0;entryDy=0;endArrow=none;endFill=0;" edge="1" parent="1" source="_eYrzRbU0s9j7Dw9RQp9-16" target="_eYrzRbU0s9j7Dw9RQp9-11">
          <mxGeometry relative="1" as="geometry" />
        </mxCell>
        <mxCell id="_eYrzRbU0s9j7Dw9RQp9-16" value="multiple sizes? if so, ask after?" style="shape=note;whiteSpace=wrap;html=1;backgroundOutline=1;fontColor=#000000;darkOpacity=0.05;fillColor=#FFF9B2;strokeColor=none;fillStyle=solid;direction=west;gradientDirection=north;gradientColor=#FFF2A1;shadow=1;size=20;pointerEvents=1;" vertex="1" parent="1">
          <mxGeometry x="660" y="730" width="110" height="50" as="geometry" />
        </mxCell>
        <mxCell id="_eYrzRbU0s9j7Dw9RQp9-32" value="no" style="edgeStyle=orthogonalEdgeStyle;rounded=0;orthogonalLoop=1;jettySize=auto;html=1;entryX=0;entryY=0.25;entryDx=0;entryDy=0;flowAnimation=1;" edge="1" parent="1" source="_eYrzRbU0s9j7Dw9RQp9-27" target="xvzqIOrwYc5JqCSCZPVQ-64">
          <mxGeometry x="-0.9756" relative="1" as="geometry">
            <Array as="points">
              <mxPoint x="20" y="930" />
              <mxPoint x="20" y="125" />
            </Array>
            <mxPoint as="offset" />
          </mxGeometry>
        </mxCell>
        <mxCell id="_eYrzRbU0s9j7Dw9RQp9-38" value="yes" style="edgeStyle=orthogonalEdgeStyle;rounded=0;orthogonalLoop=1;jettySize=auto;html=1;flowAnimation=1;" edge="1" parent="1" source="_eYrzRbU0s9j7Dw9RQp9-27" target="_eYrzRbU0s9j7Dw9RQp9-37">
          <mxGeometry relative="1" as="geometry" />
        </mxCell>
        <mxCell id="_eYrzRbU0s9j7Dw9RQp9-27" value="done making order?" style="rhombus;whiteSpace=wrap;html=1;rounded=0;" vertex="1" parent="1">
          <mxGeometry x="500" y="870" width="80" height="80" as="geometry" />
        </mxCell>
        <mxCell id="_eYrzRbU0s9j7Dw9RQp9-29" value="" style="edgeStyle=orthogonalEdgeStyle;rounded=0;orthogonalLoop=1;jettySize=auto;html=1;flowAnimation=1;" edge="1" parent="1" source="_eYrzRbU0s9j7Dw9RQp9-28" target="_eYrzRbU0s9j7Dw9RQp9-27">
          <mxGeometry relative="1" as="geometry" />
        </mxCell>
        <mxCell id="_eYrzRbU0s9j7Dw9RQp9-28" value="show list of chosen items" style="rounded=0;whiteSpace=wrap;html=1;" vertex="1" parent="1">
          <mxGeometry x="707" y="920" width="120" height="60" as="geometry" />
        </mxCell>
        <mxCell id="_eYrzRbU0s9j7Dw9RQp9-46" value="" style="edgeStyle=orthogonalEdgeStyle;rounded=0;orthogonalLoop=1;jettySize=auto;html=1;flowAnimation=1;" edge="1" parent="1" source="_eYrzRbU0s9j7Dw9RQp9-37" target="_eYrzRbU0s9j7Dw9RQp9-45">
          <mxGeometry relative="1" as="geometry">
            <Array as="points">
              <mxPoint x="520" y="1020" />
              <mxPoint x="474" y="1020" />
            </Array>
          </mxGeometry>
        </mxCell>
        <mxCell id="_eYrzRbU0s9j7Dw9RQp9-37" value="save list seperate in &quot;list of past orders&quot;" style="whiteSpace=wrap;html=1;rounded=0;" vertex="1" parent="1">
          <mxGeometry x="480" y="1040" width="120" height="60" as="geometry" />
        </mxCell>
        <mxCell id="_eYrzRbU0s9j7Dw9RQp9-39" style="edgeStyle=orthogonalEdgeStyle;rounded=0;orthogonalLoop=1;jettySize=auto;html=1;entryX=0.925;entryY=1;entryDx=0;entryDy=0;entryPerimeter=0;flowAnimation=0;endArrow=none;endFill=0;" edge="1" parent="1" source="_eYrzRbU0s9j7Dw9RQp9-15" target="_eYrzRbU0s9j7Dw9RQp9-11">
          <mxGeometry relative="1" as="geometry" />
        </mxCell>
        <mxCell id="_eYrzRbU0s9j7Dw9RQp9-44" style="edgeStyle=orthogonalEdgeStyle;rounded=0;orthogonalLoop=1;jettySize=auto;html=1;endArrow=none;endFill=0;flowAnimation=1;" edge="1" parent="1" source="_eYrzRbU0s9j7Dw9RQp9-40" target="_eYrzRbU0s9j7Dw9RQp9-37">
          <mxGeometry relative="1" as="geometry">
            <Array as="points">
              <mxPoint x="550" y="985" />
            </Array>
          </mxGeometry>
        </mxCell>
        <mxCell id="_eYrzRbU0s9j7Dw9RQp9-40" value="account? save to account if applicable?&amp;nbsp;" style="shape=note;whiteSpace=wrap;html=1;backgroundOutline=1;fontColor=#000000;darkOpacity=0.05;fillColor=#FFF9B2;strokeColor=none;fillStyle=solid;direction=west;gradientDirection=north;gradientColor=#FFF2A1;shadow=1;size=20;pointerEvents=1;" vertex="1" parent="1">
          <mxGeometry x="600" y="970" width="140" height="70" as="geometry" />
        </mxCell>
        <mxCell id="_eYrzRbU0s9j7Dw9RQp9-48" value="" style="edgeStyle=orthogonalEdgeStyle;rounded=0;orthogonalLoop=1;jettySize=auto;html=1;flowAnimation=1;" edge="1" parent="1" source="_eYrzRbU0s9j7Dw9RQp9-45" target="_eYrzRbU0s9j7Dw9RQp9-47">
          <mxGeometry relative="1" as="geometry" />
        </mxCell>
        <mxCell id="_eYrzRbU0s9j7Dw9RQp9-45" value="take item prices, calculate total price" style="whiteSpace=wrap;html=1;rounded=0;" vertex="1" parent="1">
          <mxGeometry x="400" y="950" width="120" height="60" as="geometry" />
        </mxCell>
        <mxCell id="_eYrzRbU0s9j7Dw9RQp9-50" value="" style="edgeStyle=orthogonalEdgeStyle;rounded=0;orthogonalLoop=1;jettySize=auto;html=1;flowAnimation=1;" edge="1" parent="1" source="_eYrzRbU0s9j7Dw9RQp9-47" target="_eYrzRbU0s9j7Dw9RQp9-49">
          <mxGeometry relative="1" as="geometry" />
        </mxCell>
        <mxCell id="_eYrzRbU0s9j7Dw9RQp9-47" value="calculate in salse tax, show bellow total cost, add and display as final cost" style="whiteSpace=wrap;html=1;rounded=0;" vertex="1" parent="1">
          <mxGeometry x="264" y="950" width="120" height="60" as="geometry" />
        </mxCell>
        <mxCell id="_eYrzRbU0s9j7Dw9RQp9-51" value="no" style="edgeStyle=orthogonalEdgeStyle;rounded=0;orthogonalLoop=1;jettySize=auto;html=1;entryX=0;entryY=0;entryDx=0;entryDy=0;flowAnimation=1;" edge="1" parent="1" source="_eYrzRbU0s9j7Dw9RQp9-49" target="xvzqIOrwYc5JqCSCZPVQ-64">
          <mxGeometry x="-0.9743" relative="1" as="geometry">
            <Array as="points">
              <mxPoint x="10" y="980" />
              <mxPoint x="10" y="110" />
            </Array>
            <mxPoint as="offset" />
          </mxGeometry>
        </mxCell>
        <mxCell id="kb--fhJ_REvZRZk3qt_Q-1" style="edgeStyle=orthogonalEdgeStyle;rounded=0;orthogonalLoop=1;jettySize=auto;html=1;entryX=0.5;entryY=0;entryDx=0;entryDy=0;flowAnimation=1;" edge="1" parent="1" source="_eYrzRbU0s9j7Dw9RQp9-49" target="_eYrzRbU0s9j7Dw9RQp9-52">
          <mxGeometry relative="1" as="geometry">
            <Array as="points">
              <mxPoint x="70" y="1000" />
            </Array>
          </mxGeometry>
        </mxCell>
        <mxCell id="_eYrzRbU0s9j7Dw9RQp9-49" value="confirm order? (double check items, make sure price is fine)" style="rhombus;whiteSpace=wrap;html=1;rounded=0;" vertex="1" parent="1">
          <mxGeometry x="150" y="930" width="90" height="100" as="geometry" />
        </mxCell>
        <mxCell id="bp8ooPmJ0GuyVfzTdxI8-4" value="" style="edgeStyle=orthogonalEdgeStyle;rounded=0;orthogonalLoop=1;jettySize=auto;html=1;flowAnimation=1;" edge="1" parent="1" source="_eYrzRbU0s9j7Dw9RQp9-52" target="bp8ooPmJ0GuyVfzTdxI8-3">
          <mxGeometry relative="1" as="geometry">
            <Array as="points">
              <mxPoint x="70" y="1100" />
              <mxPoint x="210" y="1100" />
            </Array>
          </mxGeometry>
        </mxCell>
        <mxCell id="_eYrzRbU0s9j7Dw9RQp9-52" value="complete purchase (payment ect." style="whiteSpace=wrap;html=1;rounded=0;" vertex="1" parent="1">
          <mxGeometry x="10" y="1020" width="120" height="60" as="geometry" />
        </mxCell>
        <mxCell id="bp8ooPmJ0GuyVfzTdxI8-2" style="edgeStyle=orthogonalEdgeStyle;rounded=0;orthogonalLoop=1;jettySize=auto;html=1;entryX=1;entryY=0.5;entryDx=0;entryDy=0;endArrow=none;endFill=0;" edge="1" parent="1" source="bp8ooPmJ0GuyVfzTdxI8-1" target="_eYrzRbU0s9j7Dw9RQp9-52">
          <mxGeometry relative="1" as="geometry" />
        </mxCell>
        <mxCell id="bp8ooPmJ0GuyVfzTdxI8-1" value="multiple pickup types (in-resturant, curbside, drop off)? choose? where?" style="shape=note;whiteSpace=wrap;html=1;backgroundOutline=1;fontColor=#000000;darkOpacity=0.05;fillColor=#FFF9B2;strokeColor=none;fillStyle=solid;direction=west;gradientDirection=north;gradientColor=#FFF2A1;shadow=1;size=20;pointerEvents=1;" vertex="1" parent="1">
          <mxGeometry x="284" y="1020" width="140" height="70" as="geometry" />
        </mxCell>
        <mxCell id="bp8ooPmJ0GuyVfzTdxI8-3" value="done" style="shape=ellipse;html=1;dashed=0;whiteSpace=wrap;aspect=fixed;strokeWidth=5;perimeter=ellipsePerimeter;" vertex="1" parent="1">
          <mxGeometry x="224" y="1080" width="60" height="60" as="geometry" />
        </mxCell>
      </root>
    </mxGraphModel>
  </diagram>
  <diagram id="sAa2kE_XaFBUb7ay6TmX" name="Page-2">
    <mxGraphModel dx="1434" dy="836" grid="1" gridSize="10" guides="1" tooltips="1" connect="1" arrows="1" fold="1" page="1" pageScale="1" pageWidth="850" pageHeight="1100" math="0" shadow="0">
      <root>
        <mxCell id="0" />
        <mxCell id="1" parent="0" />
        <mxCell id="ftbCSiaVmhAnKBzP7J8u-1" value="Requirements: A client has come to us for help. They are opening a new pizza parlor for both dine-in and take-out. They offer 3 sizes of pizzas and 8 toppings. They have a limited number of sides and drinks. They want an application that will allow customers to order pizza and sides. Customers should be able to customize their pizza, add any number of sides and drinks, and present the order for verification, including final price, before allowing the customer to complete the purchase. They also need to keep track of all sales each day. They are very interested in tracking their sales to see the most popular pizza orders." style="text;whiteSpace=wrap;" parent="1" vertex="1">
          <mxGeometry x="30" y="120" width="560" height="120" as="geometry" />
        </mxCell>
      </root>
    </mxGraphModel>
  </diagram>
</mxfile>
